<svg width="60" height="60" viewBox="0 0 60 60" fill="none" xmlns="http://www.w3.org/2000/svg">
<path d="M52.6275 51.064H11.9679C11.936 51.064 11.9042 51.0656 11.8726 51.0688C11.8474 51.0714 11.8228 51.0755 11.7981 51.0799C11.792 51.0811 11.7856 51.0815 11.7795 51.0827C11.7491 51.0887 11.7194 51.0964 11.6901 51.1052C11.6555 51.1157 11.6231 51.1274 11.5917 51.1409L5.47209 53.6906C5.11528 53.8393 4.88281 54.1879 4.88281 54.5743C4.88281 54.9609 5.11515 55.3095 5.47196 55.4581L11.5911 58.008C11.6509 58.0337 11.714 58.0535 11.7795 58.0665C11.7854 58.0676 11.7915 58.0681 11.7974 58.0692C11.8221 58.0736 11.847 58.0778 11.8724 58.0804C11.9041 58.0836 11.9359 58.0852 11.9678 58.0852H52.6274C54 58.0852 55.1167 56.9683 55.1167 55.5956V53.5531C55.1169 52.1806 54.0001 51.064 52.6275 51.064ZM12.9254 52.9789H45.1594V56.1703H12.9254V52.9789ZM47.0743 52.9789H48.9892V56.1703H47.0743V52.9789ZM11.0105 53.4575V55.6915L8.32962 54.5743L11.0105 53.4575ZM53.202 55.5956C53.202 55.9071 52.9389 56.1703 52.6275 56.1703H50.9041V52.9789H52.6275C52.9389 52.9789 53.202 53.2418 53.202 53.5531V55.5956Z" fill="white"/>
<path d="M59.8383 35.9575C59.8423 35.9515 59.8457 35.9451 59.8495 35.939C59.8624 35.9187 59.8751 35.8983 59.8866 35.877C59.8892 35.8724 59.8911 35.8674 59.8935 35.8627C59.9054 35.8396 59.9169 35.8162 59.9268 35.7922C59.9283 35.7888 59.9293 35.7853 59.9307 35.7819C59.9409 35.7565 59.9505 35.7307 59.9585 35.7043C59.9597 35.7004 59.9604 35.6965 59.9614 35.6926C59.969 35.6667 59.9759 35.6404 59.9812 35.6136C59.9829 35.6056 59.9835 35.5973 59.9849 35.5892C59.9889 35.5666 59.9929 35.5439 59.9951 35.5207C59.9983 35.4891 60 35.4572 60 35.4252V2.872C60 2.34323 59.5713 1.91455 59.0426 1.91455H0.957447C0.428681 1.91455 0 2.34323 0 2.872V46.9146C0 47.4433 0.428681 47.872 0.957447 47.872H47.5532C47.5852 47.872 47.6171 47.8703 47.6488 47.8671C47.672 47.8648 47.6946 47.8609 47.7174 47.8569C47.7254 47.8555 47.7337 47.8549 47.7417 47.8532C47.7686 47.8479 47.7949 47.841 47.8208 47.8333C47.8246 47.8322 47.8286 47.8315 47.8324 47.8304C47.8588 47.8223 47.8846 47.8128 47.91 47.8026C47.9134 47.8011 47.917 47.8001 47.9203 47.7987C47.9445 47.7888 47.9678 47.7773 47.9908 47.7654C47.9955 47.763 48.0004 47.7611 48.0051 47.7585C48.0264 47.747 48.0469 47.7344 48.0672 47.7214C48.0733 47.7174 48.0797 47.7141 48.0857 47.7101C48.1049 47.6972 48.1233 47.6831 48.1416 47.6688C48.148 47.6638 48.1546 47.6594 48.1609 47.6543C48.185 47.6344 48.2082 47.6135 48.2304 47.5914L59.7194 36.1023C59.7415 36.0802 59.7626 36.057 59.7823 36.0327C59.7874 36.0265 59.7918 36.0198 59.7968 36.0134C59.8111 35.9952 59.8254 35.9769 59.8383 35.9575ZM1.91489 3.82944H58.0851V34.4677H47.5532C47.0244 34.4677 46.5957 34.8964 46.5957 35.4252V45.9571H1.91489V3.82944ZM56.7312 36.3826L48.5106 44.6031V36.3826H56.7312Z" fill="white"/>
<path d="M43.7235 40.8508H38.9362V17.1337H52.9788V31.5955C52.9788 32.1242 53.4075 32.5529 53.9362 32.5529C54.465 32.5529 54.8937 32.1242 54.8937 31.5955V7.97844C54.8937 7.44968 54.465 7.021 53.9362 7.021H13.7235C13.1947 7.021 12.766 7.44968 12.766 7.97844C12.766 8.50721 13.1947 8.93589 13.7235 8.93589H52.9788V15.2188H7.02134V8.93589H9.89368C10.4224 8.93589 10.8511 8.50721 10.8511 7.97844C10.8511 7.44968 10.4224 7.021 9.89368 7.021H6.06389C5.53513 7.021 5.10645 7.44968 5.10645 7.97844V41.8082C5.10645 42.337 5.53513 42.7657 6.06389 42.7657H43.7235C44.2522 42.7657 44.6809 42.337 44.6809 41.8082C44.6809 41.2795 44.2522 40.8508 43.7235 40.8508ZM37.0213 40.8508H22.9788V17.1337H37.0213V40.8508ZM7.02134 17.1337H21.0639V40.8508H7.02134V17.1337Z" fill="white"/>
</svg>
