<svg width="60" height="60" viewBox="0 0 60 60" fill="none" xmlns="http://www.w3.org/2000/svg">
<path d="M19.309 50.0425C18.7801 50.0425 18.3516 50.4712 18.3516 50.9999V53.8723C18.3516 54.401 18.7801 54.8297 19.309 54.8297C19.8379 54.8297 20.2665 54.401 20.2665 53.8723V50.9999C20.2665 50.4712 19.8379 50.0425 19.309 50.0425Z" fill="white"/>
<path d="M40.6913 50.0425C40.1624 50.0425 39.7339 50.4712 39.7339 50.9999V54.8297C39.7339 55.3585 40.1624 55.7872 40.6913 55.7872C41.2202 55.7872 41.6488 55.3585 41.6488 54.8297V50.9999C41.6488 50.4712 41.2202 50.0425 40.6913 50.0425Z" fill="white"/>
<path d="M3.51067 18.1278H16.7554C17.2842 18.1278 17.7128 17.6991 17.7128 17.1703C17.7128 16.6416 17.2842 16.2129 16.7554 16.2129H3.51067C2.98178 16.2129 2.55322 16.6416 2.55322 17.1703C2.55322 17.6991 2.98178 18.1278 3.51067 18.1278Z" fill="white"/>
<path d="M3.51067 14.2982H16.7554C17.2842 14.2982 17.7128 13.8695 17.7128 13.3407C17.7128 12.812 17.2842 12.3833 16.7554 12.3833H3.51067C2.98178 12.3833 2.55322 12.812 2.55322 13.3407C2.55322 13.8695 2.98178 14.2982 3.51067 14.2982Z" fill="white"/>
<path d="M8.61711 44.2979H51.3831C51.912 44.2979 52.3405 43.8692 52.3405 43.3404V28.6596C52.3405 28.1308 51.912 27.7021 51.3831 27.7021H44.7607C44.2318 27.7021 43.8033 28.1308 43.8033 28.6596C43.8033 29.1884 44.2318 29.617 44.7607 29.617H50.4256V42.383H9.57456V29.617H40.931C41.4598 29.617 41.8884 29.1884 41.8884 28.6596C41.8884 28.1308 41.4598 27.7021 40.931 27.7021H8.61711C8.08822 27.7021 7.65967 28.1308 7.65967 28.6596V43.3404C7.65967 43.8692 8.08822 44.2979 8.61711 44.2979Z" fill="white"/>
<path d="M20.8171 18.1247C21.3437 18.1667 21.8058 17.7744 21.8483 17.2473L22.5081 9.06472C22.6366 7.47268 24.0944 6.12778 25.6915 6.12778H34.3085C35.9057 6.12778 37.3634 7.47268 37.492 9.06472L38.1517 17.2473C38.1921 17.7483 38.6112 18.1279 39.1051 18.1279C39.1307 18.1279 39.1568 18.1269 39.183 18.1247C39.7101 18.0822 40.1029 17.6205 40.0604 17.0934L39.4006 8.91076C39.1915 6.3203 36.9072 4.21289 34.3085 4.21289H25.6915C23.0929 4.21289 20.8085 6.3203 20.5994 8.91076L19.9397 17.0934C19.8972 17.6205 20.29 18.0822 20.8171 18.1247Z" fill="white"/>
<path d="M59.0426 20.0426H52.3404V13.3405C52.3404 12.8117 51.9119 12.383 51.383 12.383H49.7872V9.51067C49.7872 8.9819 49.3587 8.55322 48.8298 8.55322C48.3009 8.55322 47.8723 8.9819 47.8723 9.51067V12.383H46.2766C45.7477 12.383 45.3191 12.8117 45.3191 13.3405V20.0426H0.957447C0.428553 20.0426 0 20.4713 0 21V24.8298C0 25.3586 0.428553 25.7873 0.957447 25.7873H3.82979V54.8298C3.82979 55.3586 4.25834 55.7873 4.78723 55.7873C5.31613 55.7873 5.74468 55.3586 5.74468 54.8298V48.1277H54.2553V54.8298C54.2553 55.3586 54.6839 55.7873 55.2128 55.7873C55.7417 55.7873 56.1702 55.3586 56.1702 54.8298V25.7873H59.0426C59.5714 25.7873 60 25.3586 60 24.8298V21C60 20.4713 59.5714 20.0426 59.0426 20.0426ZM47.234 14.2979H50.4255V20.0426H47.234V14.2979ZM54.2553 46.2128H5.74468V25.7873H54.2553V46.2128ZM58.0851 23.8724H1.91489V21.9575H58.0851V23.8724Z" fill="white"/>
</svg>
