<svg width="60" height="60" viewBox="0 0 60 60" fill="none" xmlns="http://www.w3.org/2000/svg">
<path d="M46.0634 49.0646C46.2811 48.8891 46.4206 48.6206 46.4206 48.3191C46.4206 48.3107 46.4206 4.78723 46.4206 4.78723C46.4206 4.25834 45.9921 3.82979 45.4632 3.82979H17.763C17.0799 1.61451 15.0137 0 12.5773 0C10.1801 0 8.08255 1.59753 7.39255 3.82979H4.32463C3.79574 3.82979 3.36719 4.25834 3.36719 4.78723V59.0426C3.36719 59.5714 3.79574 60 4.32463 60H34.7315C35.0411 60 35.3094 59.8606 35.4849 59.6433L46.0634 49.0646ZM35.6972 56.7227V49.2766H43.1432L35.6972 56.7227ZM12.5773 1.91489C13.9385 1.91489 15.1205 2.69426 15.7027 3.82979H9.4517C10.0394 2.68749 11.2357 1.91489 12.5773 1.91489ZM5.28208 5.74468H16.088V12.4468C16.088 13.3268 15.3722 14.0426 14.4922 14.0426C13.6122 14.0426 12.8965 13.3268 12.8965 12.4468V8.61702C12.8965 8.08813 12.4679 7.65957 11.939 7.65957C11.4101 7.65957 10.9816 8.08813 10.9816 8.61702V12.4468C10.9816 14.3825 12.5565 15.9574 14.4922 15.9574C16.4279 15.9574 18.0028 14.3825 18.0028 12.4468V5.74468H44.5057V47.3617H34.7398C34.2109 47.3617 33.7823 47.7903 33.7823 48.3191V58.0851H5.28208V5.74468Z" fill="white"/>
<path d="M37.8032 44.1063C38.3321 44.1063 38.7607 43.6777 38.7607 43.1489C38.7607 42.62 38.3321 42.1914 37.8032 42.1914H11.9838C11.4549 42.1914 11.0264 42.62 11.0264 43.1489C11.0264 43.6777 11.4549 44.1063 11.9838 44.1063H37.8032Z" fill="white"/>
<path d="M11.9838 38.3617H37.8032C38.3321 38.3617 38.7607 37.9331 38.7607 37.4042C38.7607 36.8753 38.3321 36.4468 37.8032 36.4468H11.9838C11.4549 36.4468 11.0264 36.8753 11.0264 37.4042C11.0264 37.9331 11.4549 38.3617 11.9838 38.3617Z" fill="white"/>
<path d="M11.9838 32.617H37.8032C38.3321 32.617 38.7607 32.1885 38.7607 31.6596C38.7607 31.1307 38.3321 30.7021 37.8032 30.7021H11.9838C11.4549 30.7021 11.0264 31.1307 11.0264 31.6596C11.0264 32.1885 11.4549 32.617 11.9838 32.617Z" fill="white"/>
<path d="M11.9838 26.8724H37.8032C38.3321 26.8724 38.7607 26.4439 38.7607 25.915C38.7607 25.3861 38.3321 24.9575 37.8032 24.9575H11.9838C11.4549 24.9575 11.0264 25.3861 11.0264 25.915C11.0264 26.4439 11.4549 26.8724 11.9838 26.8724Z" fill="white"/>
<path d="M11.9838 21.1278H37.8032C38.3321 21.1278 38.7607 20.6992 38.7607 20.1703C38.7607 19.6414 38.3321 19.2129 37.8032 19.2129H11.9838C11.4549 19.2129 11.0264 19.6414 11.0264 20.1703C11.0264 20.6992 11.4549 21.1278 11.9838 21.1278Z" fill="white"/>
<path d="M50.5695 3.82959H49.2929C48.764 3.82959 48.3354 4.25814 48.3354 4.78704C48.3354 5.31593 48.764 5.74448 49.2929 5.74448H49.612V58.0849H39.3901C38.8612 58.0849 38.4326 58.5135 38.4326 59.0424C38.4326 59.5713 38.8612 59.9998 39.3901 59.9998H50.5695C51.0984 59.9998 51.5269 59.5713 51.5269 59.0424V4.78704C51.5269 4.25814 51.0984 3.82959 50.5695 3.82959Z" fill="white"/>
<path d="M55.6764 3.82959H54.3998C53.8709 3.82959 53.4424 4.25814 53.4424 4.78704C53.4424 5.31593 53.8709 5.74448 54.3998 5.74448H54.719V58.0849H54.3998C53.8709 58.0849 53.4424 58.5135 53.4424 59.0424C53.4424 59.5713 53.8709 59.9998 54.3998 59.9998H55.6764C56.2053 59.9998 56.6339 59.5713 56.6339 59.0424V4.78704C56.6339 4.25814 56.2053 3.82959 55.6764 3.82959Z" fill="white"/>
</svg>
