<svg width="30" height="30" viewBox="0 0 30 30" fill="none" xmlns="http://www.w3.org/2000/svg">
<path d="M25.3555 19.4117H23.4789V16.2891C23.4789 15.8779 23.1456 15.5445 22.7344 15.5445H15.7445V13.1664H20.1562C20.5674 13.1664 20.9008 12.8331 20.9008 12.4219V4.64453C20.9008 4.23335 20.5674 3.9 20.1562 3.9H9.84375C9.43257 3.9 9.09922 4.23335 9.09922 4.64453V12.4219C9.09922 12.8331 9.43257 13.1664 9.84375 13.1664H14.2555V15.5445H7.26562C6.85444 15.5445 6.52109 15.8779 6.52109 16.2891V19.4117H4.64453C4.23335 19.4117 3.9 19.7451 3.9 20.1562V25.3555C3.9 25.7667 4.23335 26.1 4.64453 26.1H9.84375C10.2549 26.1 10.5883 25.7667 10.5883 25.3555V20.1562C10.5883 19.7451 10.2549 19.4117 9.84375 19.4117H8.01016V17.0336H14.2555V19.4117H12.4219C12.0107 19.4117 11.6773 19.7451 11.6773 20.1562V25.3555C11.6773 25.7667 12.0107 26.1 12.4219 26.1H17.5781C17.9893 26.1 18.3227 25.7667 18.3227 25.3555V20.1562C18.3227 19.7451 17.9893 19.4117 17.5781 19.4117H15.7445V17.0336H21.9898V19.4117H20.1562C19.7451 19.4117 19.4117 19.7451 19.4117 20.1562V25.3555C19.4117 25.7667 19.7451 26.1 20.1562 26.1H25.3555C25.7667 26.1 26.1 25.7667 26.1 25.3555V20.1562C26.1 19.7451 25.7667 19.4117 25.3555 19.4117ZM10.5883 5.38906H19.4117V11.6773H10.5883V5.38906ZM9.09922 24.6109H5.38906V20.9008H9.09922V24.6109ZM16.8336 24.6109H13.1664V20.9008H16.8336V24.6109ZM24.6109 24.6109H20.9008V20.9008H24.6109V24.6109Z" fill="#171717" stroke="#171717" stroke-width="0.2"/>
</svg>
