<svg width="60" height="60" viewBox="0 0 60 60" fill="none" xmlns="http://www.w3.org/2000/svg">
<path d="M52.7752 47.504C52.7897 47.4854 52.8042 47.4668 52.8173 47.4471C52.8209 47.4419 52.8237 47.4363 52.8271 47.4309C52.8407 47.41 52.8538 47.3886 52.8656 47.3666C52.8677 47.3627 52.8693 47.3585 52.8713 47.3546C52.8836 47.3307 52.8953 47.3067 52.9057 47.2819C52.9068 47.2791 52.9076 47.2762 52.9087 47.2735C52.9192 47.2474 52.929 47.221 52.9372 47.194C52.9382 47.1908 52.9387 47.1873 52.9397 47.1841C52.9475 47.1576 52.9546 47.1308 52.96 47.1034C52.9616 47.0957 52.9622 47.0879 52.9636 47.0801C52.9676 47.057 52.9717 47.0341 52.974 47.0105C52.9771 46.9789 52.9788 46.9469 52.9788 46.9149V0.957447C52.9788 0.428553 52.5501 0 52.0214 0L7.9788 0C7.45017 0 7.02148 0.428553 7.02148 0.957447L7.02148 59.0426C7.02148 59.5714 7.45017 60 7.97893 60H39.8938C39.9259 60 39.9578 59.9983 39.9894 59.9951C40.0132 59.9927 40.0364 59.9888 40.0595 59.9847C40.0671 59.9834 40.0747 59.9828 40.0823 59.9814C40.1096 59.9759 40.1363 59.9687 40.1627 59.9612C40.166 59.9602 40.1696 59.9595 40.1729 59.9585C40.1994 59.9505 40.2252 59.9409 40.2506 59.9307C40.2541 59.9293 40.2575 59.9283 40.261 59.927C40.2851 59.9169 40.3083 59.9055 40.3314 59.8937C40.3362 59.8911 40.3411 59.8892 40.3457 59.8866C40.3668 59.8754 40.387 59.8628 40.407 59.85C40.4134 59.846 40.42 59.8425 40.4263 59.8383C40.4449 59.8257 40.4627 59.8121 40.4803 59.7983C40.4873 59.7928 40.4947 59.788 40.5016 59.7823C40.5232 59.7646 40.5437 59.7457 40.5637 59.7263C40.566 59.7239 40.5686 59.7221 40.5709 59.7197L52.6986 47.592C52.7005 47.5901 52.702 47.588 52.704 47.5861C52.724 47.5657 52.7433 47.5448 52.7615 47.5226C52.7663 47.5166 52.7705 47.51 52.7752 47.504ZM8.93638 1.91489L51.064 1.91489V45.9574H39.8938C39.3651 45.9574 38.9364 46.386 38.9364 46.9149V58.0851H8.93638L8.93638 1.91489ZM49.7101 47.8723L40.8513 56.7312V47.8723H49.7101Z" fill="white"/>
<path d="M26.0063 12.1278L44.3621 12.1278C44.8908 12.1278 45.3195 11.6992 45.3195 11.1703C45.3195 10.6414 44.8908 10.2129 44.3621 10.2129L26.0063 10.2129C25.4775 10.2129 25.0488 10.6414 25.0488 11.1703C25.0488 11.6992 25.4775 12.1278 26.0063 12.1278Z" fill="white"/>
<path d="M17.5147 14.4005C17.7016 14.5874 17.9467 14.6808 18.1916 14.6808C18.4366 14.6808 18.6817 14.5874 18.8686 14.4005L23.975 9.29409C24.3489 8.92005 24.3489 8.31392 23.975 7.94001C23.6011 7.56622 22.9948 7.56622 22.6211 7.94001L18.1916 12.3694L16.9537 11.1315C16.5798 10.7577 15.9736 10.7577 15.5998 11.1315C15.2259 11.5055 15.2259 12.1117 15.5998 12.4856L17.5147 14.4005Z" fill="white"/>
<path d="M23.6172 20.1064C23.6172 20.6353 24.0459 21.0638 24.5746 21.0638H44.3619C44.8906 21.0638 45.3193 20.6353 45.3193 20.1064C45.3193 19.5775 44.8906 19.1489 44.3619 19.1489H24.5746C24.0459 19.1489 23.6172 19.5775 23.6172 20.1064Z" fill="white"/>
<path d="M20.7445 16.5957H15.6381C15.1093 16.5957 14.6807 17.0243 14.6807 17.5531V22.6595C14.6807 23.1884 15.1093 23.617 15.6381 23.617H20.7445C21.2733 23.617 21.7019 23.1884 21.7019 22.6595V17.5531C21.7019 17.0243 21.2733 16.5957 20.7445 16.5957ZM19.787 21.7021H16.5956V18.5106H19.787V21.7021Z" fill="white"/>
<path d="M44.3619 28.085H24.5746C24.0459 28.085 23.6172 28.5135 23.6172 29.0424C23.6172 29.5713 24.0459 29.9999 24.5746 29.9999H44.3619C44.8906 29.9999 45.3193 29.5713 45.3193 29.0424C45.3193 28.5135 44.8906 28.085 44.3619 28.085Z" fill="white"/>
<path d="M20.7445 25.5317H15.6381C15.1093 25.5317 14.6807 25.9603 14.6807 26.4892V31.5956C14.6807 32.1245 15.1093 32.553 15.6381 32.553H20.7445C21.2733 32.553 21.7019 32.1245 21.7019 31.5956V26.4892C21.7019 25.9603 21.2733 25.5317 20.7445 25.5317ZM19.787 30.6381H16.5956V27.4466H19.787V30.6381Z" fill="white"/>
<path d="M44.3619 37.0215H24.5746C24.0459 37.0215 23.6172 37.45 23.6172 37.9789C23.6172 38.5078 24.0459 38.9364 24.5746 38.9364H44.3619C44.8906 38.9364 45.3193 38.5078 45.3193 37.9789C45.3193 37.45 44.8906 37.0215 44.3619 37.0215Z" fill="white"/>
<path d="M20.7445 34.4683H15.6381C15.1093 34.4683 14.6807 34.8968 14.6807 35.4257V40.5321C14.6807 41.061 15.1093 41.4895 15.6381 41.4895H20.7445C21.2733 41.4895 21.7019 41.061 21.7019 40.5321V35.4257C21.7019 34.8968 21.2733 34.4683 20.7445 34.4683ZM19.787 39.5746H16.5956V36.3832H19.787V39.5746Z" fill="white"/>
<path d="M36.064 45.9575H24.5746C24.0459 45.9575 23.6172 46.3861 23.6172 46.915C23.6172 47.4439 24.0459 47.8724 24.5746 47.8724H36.064C36.5928 47.8724 37.0214 47.4439 37.0214 46.915C37.0214 46.3861 36.5928 45.9575 36.064 45.9575Z" fill="white"/>
<path d="M20.7445 43.4043H15.6381C15.1093 43.4043 14.6807 43.8328 14.6807 44.3617V49.4681C14.6807 49.997 15.1093 50.4256 15.6381 50.4256H20.7445C21.2733 50.4256 21.7019 49.997 21.7019 49.4681V44.3617C21.7019 43.8328 21.2733 43.4043 20.7445 43.4043ZM19.787 48.5107H16.5956V45.3192H19.787V48.5107Z" fill="white"/>
</svg>
