<svg width="60" height="60" viewBox="0 0 60 60" fill="none" xmlns="http://www.w3.org/2000/svg">
<path d="M24.5699 37.6325H22.9741V34.3268C22.9741 33.798 22.5456 33.3693 22.0167 33.3693C21.4878 33.3693 21.0592 33.798 21.0592 34.3268V37.6325H18.9331V30.497C18.9331 29.9682 18.5045 29.5396 17.9756 29.5396C17.4467 29.5396 17.0182 29.9682 17.0182 30.497V37.6325H14.8921V34.3268C14.8921 33.798 14.4636 33.3693 13.9347 33.3693C13.4058 33.3693 12.9772 33.798 12.9772 34.3268V37.6325H10.8509V30.497C10.8509 29.9682 10.4224 29.5396 9.89348 29.5396C9.36459 29.5396 8.93604 29.9682 8.93604 30.497V38.59C8.93604 39.1187 9.36459 39.5474 9.89348 39.5474H24.5699C25.0988 39.5474 25.5273 39.1187 25.5273 38.59C25.5273 38.0612 25.0986 37.6325 24.5699 37.6325Z" fill="white"/>
<path d="M24.5699 6.79834H9.89348C9.36459 6.79834 8.93604 7.22702 8.93604 7.75579C8.93604 8.28455 9.36459 8.71323 9.89348 8.71323H24.5699C25.0988 8.71323 25.5273 8.28455 25.5273 7.75579C25.5273 7.22702 25.0986 6.79834 24.5699 6.79834Z" fill="white"/>
<path d="M24.5699 11.3467H9.89348C9.36459 11.3467 8.93604 11.7754 8.93604 12.3041C8.93604 12.8329 9.36459 13.2616 9.89348 13.2616H24.5699C25.0988 13.2616 25.5273 12.8329 25.5273 12.3041C25.5273 11.7754 25.0986 11.3467 24.5699 11.3467Z" fill="white"/>
<path d="M9.89348 17.8099H17.2316C17.7605 17.8099 18.1891 17.3812 18.1891 16.8525C18.1891 16.3237 17.7605 15.895 17.2316 15.895H9.89348C9.36459 15.895 8.93604 16.3237 8.93604 16.8525C8.93604 17.3812 9.36459 17.8099 9.89348 17.8099Z" fill="white"/>
<path d="M24.5699 20.4429H9.89348C9.36459 20.4429 8.93604 20.8716 8.93604 21.4003C8.93604 21.9291 9.36459 22.3578 9.89348 22.3578H24.5699C25.0988 22.3578 25.5273 21.9291 25.5273 21.4003C25.5273 20.8716 25.0986 20.4429 24.5699 20.4429Z" fill="white"/>
<path d="M24.5699 24.9912H9.89348C9.36459 24.9912 8.93604 25.4199 8.93604 25.9487C8.93604 26.4774 9.36459 26.9061 9.89348 26.9061H24.5699C25.0988 26.9061 25.5273 26.4774 25.5273 25.9487C25.5273 25.4199 25.0986 24.9912 24.5699 24.9912Z" fill="white"/>
<path d="M29.9999 7.49072C29.471 7.49072 29.0425 7.9194 29.0425 8.44817V40.7266C29.0425 41.2554 29.471 41.6841 29.9999 41.6841C30.5288 41.6841 30.9574 41.2554 30.9574 40.7266V8.44817C30.9574 7.91928 30.5288 7.49072 29.9999 7.49072Z" fill="white"/>
<path d="M59.0426 9.35147H56.1702V2.64934C56.1702 2.12058 55.7417 1.69189 55.2128 1.69189H33.6679C32.2871 1.69189 30.9826 2.21977 30 3.14377C29.0173 2.21977 27.7127 1.69189 26.3321 1.69189H4.78723C4.25834 1.69189 3.82979 2.12058 3.82979 2.64934V9.35147H0.957447C0.428553 9.35147 0 9.78015 0 10.3089V51.3559C0 51.8847 0.428553 52.3134 0.957447 52.3134H26.1494L27.2212 53.5636C27.4031 53.7757 27.6687 53.8978 27.9481 53.8978L32.0526 53.8974C32.3321 53.8974 32.5977 53.7752 32.7795 53.5629L33.8505 52.3133H39.0956V55.8192C39.0956 57.1918 40.2124 58.3085 41.5852 58.3085H43.6278C45.0003 58.3085 46.1169 57.1918 46.1169 55.8192V52.3133H59.0426C59.5714 52.3133 60 51.8846 60 51.3558V10.3089C60 9.78015 59.5714 9.35147 59.0426 9.35147ZM44.2021 16.1172V48.3512H41.0106V16.1172H44.2021ZM41.0106 50.2661H44.2021V52.181H41.0106V50.2661ZM41.4894 14.2023L42.6065 11.5214L43.7234 14.2023H41.4894ZM43.6279 56.3938H41.5854C41.2739 56.3938 41.0106 56.1307 41.0106 55.8193V54.0959H44.2021V55.8193C44.2021 56.1307 43.9392 56.3938 43.6279 56.3938ZM58.0851 50.3985H46.117V15.1597C46.117 15.1278 46.1154 15.096 46.1122 15.0644C46.1095 15.0379 46.1053 15.012 46.1006 14.9862C46.0997 14.9814 46.0993 14.9764 46.0983 14.9716C46.0851 14.9058 46.0653 14.8425 46.0394 14.7822L43.4903 8.66389C43.3417 8.30709 42.9931 8.07462 42.6065 8.07462C42.2201 8.07462 41.8713 8.30696 41.7227 8.66377L39.1729 14.7827C39.1472 14.8427 39.1274 14.9058 39.1143 14.9714C39.1132 14.9768 39.1129 14.9822 39.1118 14.9875C39.1072 15.0128 39.1029 15.0383 39.1003 15.0642C39.0971 15.0959 39.0955 15.1277 39.0955 15.1596V50.3984H33.6677C33.1776 50.3984 32.7212 50.6312 32.4326 51.0248L31.6118 51.9825L28.3879 51.9827L27.5667 51.0249C27.2777 50.6312 26.8211 50.3984 26.3316 50.3984H1.91489V11.2664H3.82979V43.6964C3.82979 44.2251 4.25834 44.6538 4.78723 44.6538H26.3321C27.3973 44.6538 28.391 45.1433 29.0426 45.9742V47.3044C28.2332 46.8298 27.3017 46.5687 26.3321 46.5687H4.78723C4.25834 46.5687 3.82979 46.9974 3.82979 47.5261C3.82979 48.0549 4.25834 48.4836 4.78723 48.4836H26.3321C27.4883 48.4836 28.5614 49.0593 29.2029 50.0236C29.224 50.055 29.2462 50.0839 29.2699 50.1119C29.2762 50.1193 29.2829 50.1262 29.2894 50.1333C29.3072 50.153 29.3254 50.1719 29.3447 50.19C29.3533 50.1981 29.3618 50.2059 29.3706 50.2135C29.3908 50.2311 29.4119 50.2478 29.4334 50.2638C29.4406 50.269 29.4475 50.2747 29.4548 50.2798C29.4846 50.3006 29.5157 50.3199 29.548 50.3372C29.5796 50.3542 29.6124 50.3689 29.6459 50.3823C29.6538 50.3855 29.662 50.3881 29.67 50.3911C29.6962 50.4007 29.7226 50.4092 29.7498 50.4165C29.7596 50.4192 29.7696 50.4219 29.7795 50.4241C29.8062 50.4304 29.8333 50.4354 29.8607 50.4395C29.8703 50.4409 29.8797 50.4427 29.8894 50.4438C29.9258 50.448 29.9627 50.4507 30.0003 50.4507C30.0382 50.4507 30.0747 50.448 30.1109 50.4438C30.121 50.4427 30.1308 50.4407 30.1408 50.4392C30.1677 50.4353 30.1944 50.4303 30.2207 50.4241C30.2311 50.4217 30.2411 50.419 30.2514 50.4162C30.278 50.409 30.3042 50.4005 30.3299 50.3911C30.3383 50.388 30.3467 50.3852 30.355 50.3819C30.388 50.3687 30.4201 50.3542 30.4511 50.3377C30.485 50.3197 30.5157 50.3004 30.5455 50.2798C30.5531 50.2745 30.5603 50.2687 30.5678 50.263C30.5891 50.2473 30.6097 50.231 30.6296 50.2136C30.6386 50.2059 30.6474 50.1978 30.656 50.1896C30.6751 50.1718 30.6932 50.1531 30.7106 50.1337C30.7173 50.1263 30.7242 50.1192 30.7307 50.1115C30.7543 50.0837 30.7764 50.0548 30.7967 50.0244C31.4387 49.0592 32.5118 48.4835 33.6683 48.4835H36.2238C36.7527 48.4835 37.1812 48.0548 37.1812 47.526C37.1812 46.9973 36.7527 46.5686 36.2238 46.5686H33.6683C32.6986 46.5686 31.7672 46.8295 30.9578 47.3041V45.9741C31.6091 45.1433 32.603 44.6537 33.6683 44.6537H36.2238C36.7527 44.6537 37.1812 44.225 37.1812 43.6962C37.1812 43.1675 36.7527 42.7388 36.2238 42.7388H33.6683C32.2874 42.7388 30.983 43.2661 30.0003 44.1895C29.0175 43.2663 27.7131 42.7388 26.3325 42.7388H5.74468V3.60679H26.3321C27.4882 3.60679 28.5611 4.18304 29.2026 5.14828C29.3801 5.41534 29.6793 5.57581 30 5.57581C30.3207 5.57581 30.6199 5.41534 30.7975 5.14828C31.4387 4.18304 32.512 3.60692 33.6679 3.60692H54.2553V42.739H48.9894C48.4605 42.739 48.0319 43.1677 48.0319 43.6965C48.0319 44.2253 48.4605 44.6539 48.9894 44.6539H55.2128C55.7417 44.6539 56.1702 44.2253 56.1702 43.6965V11.2664H58.0851V50.3985Z" fill="white"/>
<path d="M55.2126 46.5688H48.9892C48.4603 46.5688 48.0317 46.9975 48.0317 47.5263C48.0317 48.0551 48.4603 48.4837 48.9892 48.4837H55.2126C55.7415 48.4837 56.17 48.0551 56.17 47.5263C56.17 46.9975 55.7415 46.5688 55.2126 46.5688Z" fill="white"/>
</svg>
