<svg width="60" height="60" fill="none" xmlns="http://www.w3.org/2000/svg"><path d="M52.627 51.064h-40.66a.946.946 0 00-.169.016l-.018.003a.95.95 0 00-.188.058l-6.12 2.55a.958.958 0 000 1.767l6.12 2.55a.893.893 0 00.188.058c.005.002.011.002.017.003a1.018 1.018 0 00.17.016h40.66a2.492 2.492 0 002.49-2.49v-2.042a2.492 2.492 0 00-2.49-2.489zm-39.702 1.915H45.16v3.191H12.925v-3.19zm34.15 0h1.914v3.191h-1.915v-3.19zm-36.065.479v2.233l-2.68-1.117 2.68-1.116zm42.192 2.138a.582.582 0 01-.575.574h-1.723v-3.19h1.723c.312 0 .575.263.575.574v2.043zm6.636-19.638l.011-.019c.013-.02.026-.04.038-.062l.007-.014a.925.925 0 00.033-.07l.004-.011a.94.94 0 00.028-.078l.002-.011a.903.903 0 00.02-.08l.004-.024a.856.856 0 00.015-.164V2.872a.957.957 0 00-.957-.957H.957A.957.957 0 000 2.872v44.043c0 .528.429.957.957.957h46.596a.952.952 0 00.164-.015l.025-.004a.863.863 0 00.079-.02c.004 0 .008-.002.011-.003a.98.98 0 00.078-.027l.01-.004a.874.874 0 00.07-.034l.015-.007a.97.97 0 00.062-.037l.019-.01a.97.97 0 00.056-.042l.019-.015c.024-.02.047-.04.07-.063l11.488-11.489a.902.902 0 00.063-.07l.015-.019a.879.879 0 00.041-.055zM1.915 3.829h56.17v30.639H47.553a.958.958 0 00-.957.957v10.532H1.915V3.83zM56.73 36.383l-8.22 8.22v-8.22h8.22z" fill="#fff"/><path d="M43.724 40.85h-4.788V17.135H52.98v14.462a.957.957 0 001.915 0V7.978a.957.957 0 00-.958-.957H13.724a.957.957 0 100 1.915h39.255v6.283H7.02V8.936h2.873a.957.957 0 000-1.915h-3.83a.957.957 0 00-.958.957v33.83c0 .529.43.958.958.958h37.66a.957.957 0 000-1.915zm-6.703 0H22.98V17.135h14.04V40.85zm-30-23.716h14.043V40.85H7.02V17.134z" fill="#fff"/></svg>