<svg width="54" height="60" fill="none" xmlns="http://www.w3.org/2000/svg"><path d="M43.063 49.065a.955.955 0 00.358-.746V4.787a.957.957 0 00-.958-.957h-27.7A5.435 5.435 0 009.577 0C7.18 0 5.083 1.598 4.393 3.83H1.325a.957.957 0 00-.958.957v54.256c0 .528.429.957.958.957h30.407a.96.96 0 00.753-.357l10.578-10.578zm-10.366 7.658v-7.446h7.446l-7.446 7.446zM9.577 1.915c1.361 0 2.543.78 3.126 1.915H6.452a3.53 3.53 0 013.125-1.915zm-7.295 3.83h10.806v6.702c0 .88-.716 1.596-1.596 1.596-.88 0-1.596-.716-1.596-1.596v-3.83a.957.957 0 10-1.914 0v3.83a3.515 3.515 0 003.51 3.51 3.515 3.515 0 003.51-3.51V5.745h26.504v41.617H31.74a.957.957 0 00-.958.957v9.766h-28.5V5.745z" fill="#fff"/><path d="M34.803 44.106a.957.957 0 100-1.915H8.983a.957.957 0 100 1.915h25.82zM8.984 38.362h25.82a.957.957 0 100-1.915H8.983a.957.957 0 100 1.915zm0-5.745h25.82a.957.957 0 100-1.915H8.983a.957.957 0 100 1.915zm0-5.745h25.82a.957.957 0 100-1.915H8.983a.957.957 0 100 1.915zm0-5.744h25.82a.957.957 0 100-1.915H8.983a.957.957 0 100 1.915zM47.57 3.83h-1.277a.957.957 0 100 1.914h.319v52.34H36.39a.957.957 0 100 1.916h11.18a.957.957 0 00.957-.958V4.787a.957.957 0 00-.958-.957zm5.106 0H51.4a.957.957 0 100 1.914h.319v52.34h-.32a.957.957 0 100 1.916h1.277a.957.957 0 00.958-.958V4.787a.957.957 0 00-.958-.957z" fill="#fff"/></svg>