<svg width="60" height="60" fill="none" xmlns="http://www.w3.org/2000/svg"><path d="M46.063 49.065a.955.955 0 00.358-.746V4.787a.957.957 0 00-.958-.957h-27.7A5.435 5.435 0 0012.577 0C10.18 0 8.083 1.598 7.393 3.83H4.325a.957.957 0 00-.958.957v54.256c0 .528.429.957.958.957H34.73a.96.96 0 00.754-.357l10.578-10.578zm-10.366 7.658v-7.446h7.446l-7.446 7.446zM12.577 1.915c1.361 0 2.543.78 3.126 1.915H9.452a3.53 3.53 0 013.125-1.915zm-7.295 3.83h10.806v6.702c0 .88-.716 1.596-1.596 1.596-.88 0-1.596-.716-1.596-1.596v-3.83a.957.957 0 10-1.914 0v3.83a3.515 3.515 0 003.51 3.51 3.515 3.515 0 003.51-3.51V5.745h26.504v41.617H34.74a.957.957 0 00-.958.957v9.766h-28.5V5.745z" fill="#fff"/><path d="M37.803 44.106a.957.957 0 100-1.915h-25.82a.957.957 0 100 1.915h25.82zm-25.819-5.744h25.82a.957.957 0 100-1.915h-25.82a.957.957 0 100 1.915zm0-5.745h25.82a.957.957 0 100-1.915h-25.82a.957.957 0 100 1.915zm0-5.745h25.82a.957.957 0 100-1.915h-25.82a.957.957 0 100 1.915zm0-5.744h25.82a.957.957 0 100-1.915h-25.82a.957.957 0 100 1.915zM50.57 3.83h-1.277a.957.957 0 100 1.914h.319v52.34H39.39a.957.957 0 100 1.916h11.18a.957.957 0 00.957-.958V4.787a.957.957 0 00-.958-.957zm5.106 0H54.4a.957.957 0 100 1.914h.319v52.34h-.32a.957.957 0 100 1.916h1.277a.957.957 0 00.958-.958V4.787a.957.957 0 00-.958-.957z" fill="#fff"/></svg>