<svg width="60" height="52" fill="none" xmlns="http://www.w3.org/2000/svg"><path d="M19.309 46.042a.957.957 0 00-.957.958v2.872a.957.957 0 101.915 0V47a.957.957 0 00-.958-.958zm21.382 0a.957.957 0 00-.957.958v3.83a.957.957 0 101.915 0V47a.957.957 0 00-.958-.958zM3.51 14.128h13.245a.957.957 0 000-1.915H3.511a.957.957 0 100 1.915zm0-3.83h13.245a.957.957 0 000-1.915H3.511a.957.957 0 100 1.915zm5.107 30h42.766a.957.957 0 00.957-.958V24.66a.957.957 0 00-.957-.958h-6.622a.957.957 0 100 1.915h5.665v12.766H9.575V25.617H40.93a.957.957 0 100-1.915H8.617a.957.957 0 00-.957.958v14.68c0 .53.428.958.957.958zm12.2-26.173a.958.958 0 001.031-.878l.66-8.182c.129-1.592 1.586-2.937 3.184-2.937h8.617c1.597 0 3.054 1.345 3.183 2.937l.66 8.182a.958.958 0 001.908-.154l-.66-8.182C39.192 2.32 36.908.213 34.31.213h-8.617c-2.6 0-4.884 2.107-5.093 4.698l-.66 8.182a.957.957 0 00.878 1.032z" fill="#fff"/><path d="M59.043 16.043H52.34V9.34a.957.957 0 00-.957-.957h-1.596V5.511a.957.957 0 10-1.915 0v2.872h-1.595a.957.957 0 00-.958.957v6.703H.957A.957.957 0 000 17v3.83c0 .529.429.957.957.957H3.83V50.83a.957.957 0 101.915 0v-6.702h48.51v6.702a.957.957 0 101.915 0V21.787h2.873A.957.957 0 0060 20.83V17a.957.957 0 00-.957-.957zm-11.809-5.745h3.191v5.745h-3.191v-5.745zm7.021 31.915H5.745V21.787h48.51v20.426zm3.83-22.34H1.915v-1.916h56.17v1.915z" fill="#fff"/></svg>