<svg width="83" height="20" fill="none" xmlns="http://www.w3.org/2000/svg"><path d="M15.707 4.76h10.449v10.767H22.9V7.299h-3.937v8.228h-3.256V4.76zm47.744 5.104V4.76h-3.298v10.767h1.376l5.833-5.041v5.041h3.276V4.76h-1.294L63.45 9.864zm8.48 5.663h3.277V4.76h-3.277v10.767zm7.011-5.491l3.842-5.276h-3.82l-3.691 5.276 3.907 5.491H83l-4.058-5.491zM35.385 4.76l-2.74 6.827-2.59-6.827H26.58l4.38 10.767L29.064 20h3.389l5.402-12.707h3.35v8.234h3.276V7.313h3.28V4.76H35.386zm20.198 3.807h-3.9V4.76h-3.298v10.768h3.297v-4.43h3.9v4.43h3.297V4.76h-3.296v3.807zM11.559 5.403c-.796-1.096-1.92-1.555-2.731-1.712l.005.001-6.622-1.257A8.057 8.057 0 018.008 0a8.021 8.021 0 016.552 3.36l-3.002 2.043zm0 5.042c-.796 1.096-1.92 1.555-2.731 1.71h.005l-6.622 1.257a8.059 8.059 0 005.797 2.435 8.021 8.021 0 006.552-3.36l-3.002-2.042zM3.837 8.558H0c.1 1.475.61 2.758 1.417 3.9l4.351-.818c-1.096-.654-1.787-1.719-1.932-3.082zm1.856-4.28l-4.296-.806C.603 4.608.1 5.872 0 7.314h3.837c.141-1.332.804-2.375 1.856-3.035z" fill="#fff"/></svg>