<svg width="30" height="30" fill="none" xmlns="http://www.w3.org/2000/svg"><path d="M25.355 19.412H23.48v-3.123a.745.745 0 00-.745-.745h-6.99v-2.378h4.412a.745.745 0 00.745-.744V4.645a.745.745 0 00-.745-.745H9.844a.745.745 0 00-.745.745v7.777c0 .411.334.744.745.744h4.412v2.378h-6.99a.745.745 0 00-.745.745v3.123H4.645a.745.745 0 00-.745.744v5.2c0 .41.333.744.745.744h5.199a.745.745 0 00.744-.745v-5.199a.745.745 0 00-.744-.744H8.01v-2.378h6.245v2.378h-1.833a.745.745 0 00-.745.744v5.2c0 .41.334.744.745.744h5.156a.745.745 0 00.745-.745v-5.199a.745.745 0 00-.745-.744h-1.833v-2.378h6.245v2.378h-1.834a.745.745 0 00-.744.744v5.2c0 .41.333.744.744.744h5.2a.744.744 0 00.744-.745v-5.199a.745.745 0 00-.745-.744zM10.588 5.389h8.824v6.288h-8.824V5.39zM9.1 24.611H5.39V20.9H9.1v3.71zm7.735 0h-3.668V20.9h3.668v3.71zm7.777 0H20.9V20.9h3.71v3.71z" fill="#171717" stroke="#171717" stroke-width=".2"/></svg>