<svg width="30" height="30" fill="none" xmlns="http://www.w3.org/2000/svg"><path d="M25.355 19.462H23.43v-3.173a.695.695 0 00-.695-.695h-7.04v-2.478h4.462a.695.695 0 00.695-.694V4.645a.695.695 0 00-.695-.695H9.844a.695.695 0 00-.695.695v7.777c0 .383.311.694.695.694h4.462v2.479h-7.04a.695.695 0 00-.695.694v3.173H4.645a.695.695 0 00-.695.694v5.2c0 .383.311.694.695.694h5.199a.695.695 0 00.694-.695v-5.199a.695.695 0 00-.694-.694H7.96v-2.478h6.346v2.478h-1.884a.695.695 0 00-.695.694v5.2c0 .383.311.694.695.694h5.156a.695.695 0 00.695-.695v-5.199a.695.695 0 00-.695-.694h-1.883v-2.478h6.345v2.478h-1.884a.695.695 0 00-.694.694v5.2c0 .383.31.694.694.694h5.2a.695.695 0 00.694-.695v-5.199a.695.695 0 00-.695-.694zM10.538 5.339h8.924v6.388h-8.924V5.34zM9.15 24.661H5.34v-3.81h3.81v3.81zm7.735 0h-3.768v-3.81h3.768v3.81zm7.777 0h-3.81v-3.81h3.81v3.81z" fill="#171717" stroke="#171717" stroke-width=".1"/></svg>