<svg width="60" height="58" fill="none" xmlns="http://www.w3.org/2000/svg"><path d="M24.57 36.633h-1.596v-3.306a.957.957 0 10-1.915 0v3.306h-2.126v-7.136a.957.957 0 10-1.915 0v7.136h-2.126v-3.306a.957.957 0 10-1.915 0v3.306h-2.126v-7.136a.957.957 0 10-1.915 0v8.093c0 .529.429.957.957.957H24.57a.957.957 0 100-1.914zm0-30.835H9.893a.957.957 0 100 1.915H24.57a.957.957 0 100-1.915zm0 4.549H9.893a.957.957 0 100 1.915H24.57a.957.957 0 100-1.915zM9.893 16.81h7.339a.957.957 0 100-1.915H9.893a.957.957 0 100 1.915zm14.677 2.633H9.893a.957.957 0 100 1.915H24.57a.957.957 0 100-1.915zm0 4.548H9.893a.957.957 0 100 1.915H24.57a.957.957 0 100-1.915zM30 6.49a.957.957 0 00-.957.958v32.279a.957.957 0 101.914 0V7.448A.957.957 0 0030 6.491z" fill="#fff"/><path d="M59.043 8.351H56.17V1.65a.957.957 0 00-.957-.957H33.668c-1.38 0-2.685.528-3.668 1.452A5.347 5.347 0 0026.332.692H4.787a.957.957 0 00-.957.957v6.702H.957A.957.957 0 000 9.31v41.047c0 .529.429.957.957.957H26.15l1.072 1.25a.958.958 0 00.727.335h4.105c.28 0 .545-.123.727-.335l1.07-1.25h5.246v3.506a2.492 2.492 0 002.49 2.49h2.042a2.492 2.492 0 002.489-2.49v-3.506h12.926a.957.957 0 00.957-.957V9.309a.957.957 0 00-.957-.958zm-14.84 6.766v32.234H41.01V15.117h3.191zm-3.192 34.15h3.191v1.914h-3.191v-1.915zm.478-36.065l1.117-2.68 1.117 2.68H41.49zm2.139 42.192h-2.043a.582.582 0 01-.574-.575v-1.723h3.191v1.723a.582.582 0 01-.574.575zm14.457-5.995H46.117v-35.24a.946.946 0 00-.016-.173l-.003-.014a.956.956 0 00-.059-.19L43.49 7.664a.957.957 0 00-1.767 0l-2.55 6.119a.953.953 0 00-.059.188l-.002.017a.97.97 0 00-.017.172v35.238h-5.427c-.49 0-.947.233-1.235.627l-.821.958h-3.224l-.821-.958a1.53 1.53 0 00-1.235-.627H1.915V10.266H3.83v32.43c0 .53.428.958.957.958h21.545a3.44 3.44 0 012.71 1.32v1.33a5.352 5.352 0 00-2.71-.735H4.787a.957.957 0 100 1.915h21.545c1.156 0 2.23.575 2.87 1.54.022.031.044.06.068.088l.02.021a.955.955 0 00.143.13l.022.017a.931.931 0 00.19.102l.025.01a.937.937 0 00.19.047l.03.005a.965.965 0 00.22 0l.03-.005a.93.93 0 00.19-.048l.025-.01a.974.974 0 00.19-.101l.023-.017a.948.948 0 00.143-.13l.02-.022a.948.948 0 00.066-.087 3.442 3.442 0 012.871-1.54h2.556a.957.957 0 100-1.915h-2.556c-.97 0-1.9.26-2.71.735v-1.33a3.439 3.439 0 012.71-1.32h2.556a.957.957 0 100-1.915h-2.556c-1.38 0-2.685.527-3.668 1.45a5.35 5.35 0 00-3.668-1.45H5.745V2.607h20.587a3.44 3.44 0 012.87 1.541.957.957 0 001.595 0 3.44 3.44 0 012.87-1.541h20.588v39.132H48.99a.957.957 0 100 1.915h6.224a.957.957 0 00.957-.958v-32.43h1.915V49.4z" fill="#fff"/><path d="M55.213 45.569h-6.224a.957.957 0 100 1.915h6.224a.957.957 0 100-1.915z" fill="#fff"/></svg>