<svg width="60" height="60" fill="none" xmlns="http://www.w3.org/2000/svg"><path d="M52.775 47.504a.939.939 0 00.042-.057l.01-.016a.888.888 0 00.039-.064l.005-.012a.978.978 0 00.035-.073c0-.003.002-.006.003-.008a.963.963 0 00.028-.08l.003-.01a.907.907 0 00.02-.08l.004-.024c.004-.023.008-.046.01-.07a.98.98 0 00.005-.095V.957A.957.957 0 0052.02 0H7.98a.957.957 0 00-.958.957v58.086c0 .528.43.957.958.957h31.915a.949.949 0 00.166-.015l.022-.004a.668.668 0 00.08-.02l.01-.002a.93.93 0 00.079-.028l.01-.004a1.03 1.03 0 00.07-.033l.015-.007a.877.877 0 00.061-.037l.02-.012a.966.966 0 00.053-.04l.022-.016a1 1 0 00.062-.056l.007-.006L52.7 47.592l.005-.006c.02-.02.04-.041.057-.063l.014-.019zM8.936 1.914h42.128v44.043h-11.17a.957.957 0 00-.958.958v11.17h-30V1.915zM49.71 47.873l-8.859 8.86v-8.86h8.86z" fill="#fff"/><path d="M26.006 12.128h18.356a.957.957 0 000-1.915H26.006a.957.957 0 100 1.915zM17.515 14.4a.954.954 0 001.354 0l5.106-5.106a.958.958 0 00-1.354-1.354l-4.43 4.43-1.237-1.238a.957.957 0 00-1.354 1.354l1.915 1.914zm6.102 5.706c0 .53.429.958.958.958h19.787a.957.957 0 100-1.915H24.575a.957.957 0 00-.958.957zm-2.873-3.51h-5.106a.957.957 0 00-.957.957v5.107c0 .528.428.957.957.957h5.106a.957.957 0 00.958-.957v-5.107a.957.957 0 00-.958-.957zm-.957 5.106h-3.191v-3.191h3.191v3.191zm24.575 6.383H24.575a.957.957 0 100 1.915h19.787a.957.957 0 000-1.915zm-23.618-2.553h-5.106a.957.957 0 00-.957.957v5.107c0 .528.428.957.957.957h5.106a.957.957 0 00.958-.957v-5.107a.957.957 0 00-.958-.957zm-.957 5.106h-3.191v-3.191h3.191v3.191zm24.575 6.384H24.575a.957.957 0 100 1.914h19.787a.957.957 0 000-1.914zm-23.618-2.554h-5.106a.957.957 0 00-.957.958v5.106c0 .529.428.958.957.958h5.106a.957.957 0 00.958-.958v-5.106a.957.957 0 00-.958-.958zm-.957 5.107h-3.191v-3.192h3.191v3.192zm16.277 6.383h-11.49a.957.957 0 000 1.914h11.49a.957.957 0 100-1.914zm-15.32-2.554h-5.106a.957.957 0 00-.957.958v5.106c0 .529.428.958.957.958h5.106a.957.957 0 00.958-.958v-5.106a.957.957 0 00-.958-.958zm-.957 5.107h-3.191v-3.192h3.191v3.192z" fill="#fff"/></svg>