<svg width="30" height="30" fill="none" xmlns="http://www.w3.org/2000/svg"><path d="M19.604 0h-9.208C1.992 0 0 1.992 0 10.396v9.208C0 28.008 1.992 30 10.396 30h9.208C28.008 30 30 28.008 30 19.604v-9.208C30 1.992 27.988 0 19.604 0zm4.615 21.4H22.04c-.825 0-1.08-.654-2.563-2.157-1.29-1.25-1.86-1.416-2.178-1.416-.449 0-.576.126-.576.742v1.968c0 .528-.166.845-1.563.845-2.31 0-4.873-1.397-6.67-4-2.71-3.813-3.452-6.67-3.452-7.26 0-.318.126-.615.737-.615h2.182c.552 0 .762.254.977.845 1.08 3.115 2.876 5.844 3.618 5.844.273 0 .4-.127.4-.825v-3.218c-.083-1.484-.864-1.611-.864-2.138 0-.254.21-.508.546-.508h3.432c.464 0 .635.254.635.8v4.341c0 .469.21.635.336.635.274 0 .509-.166 1.016-.674 1.567-1.758 2.69-4.468 2.69-4.468.147-.318.4-.615.953-.615h2.182c.655 0 .8.336.655.805-.274 1.27-2.945 5.039-2.945 5.039-.23.38-.318.546 0 .971.234.318.997.977 1.504 1.567.933 1.06 1.65 1.949 1.84 2.563.216.61-.101.929-.717.929h.003z" fill="#fff"/></svg>