<svg width="62" height="62" fill="none" xmlns="http://www.w3.org/2000/svg"><mask id="a" maskUnits="userSpaceOnUse" x="0" y="0" width="62" height="62" fill="#000"><path fill="#fff" d="M0 0h62v62H0z"/><path d="M59.108 25.645H53.11a24.4 24.4 0 00-.282-1.067l5.191-2.996a1.894 1.894 0 00.691-2.583l-3.465-6a1.895 1.895 0 00-2.581-.692l-5.213 3.01c-.25-.26-.508-.52-.77-.77l3.01-5.214c.52-.9.21-2.059-.692-2.58l-6-3.466a1.891 1.891 0 00-2.581.692L37.42 9.171a23.73 23.73 0 00-1.066-.281v-6c0-1.042-.848-1.89-1.89-1.89h-6.929c-1.042 0-1.89.848-1.89 1.89v6c-.37.088-.724.181-1.066.28l-2.997-5.19a1.892 1.892 0 00-2.58-.693l-6.003 3.465a1.893 1.893 0 00-.69 2.581l3.009 5.213c-.262.25-.52.509-.77.771l-5.214-3.01a1.894 1.894 0 00-2.582.691L3.287 19c-.52.903-.21 2.06.692 2.583l5.192 2.996c-.099.344-.193.697-.281 1.067h-6c-1.042 0-1.89.848-1.89 1.89v6.929c0 1.042.848 1.89 1.89 1.89h6c.088.37.18.723.28 1.066l-5.19 2.997a1.891 1.891 0 00-.692 2.581l3.465 6.003c.52.9 1.677 1.21 2.581.69l5.213-3.01c.252.264.51.521.772.77l-3.01 5.213c-.52.901-.21 2.06.691 2.581l6.002 3.467a1.893 1.893 0 002.582-.693l2.996-5.191c.345.1.701.194 1.066.282v6c0 1.042.848 1.89 1.89 1.89h6.929c1.042 0 1.89-.848 1.89-1.89v-6a23.88 23.88 0 001.066-.282l2.997 5.191a1.89 1.89 0 002.58.691l6.003-3.465c.9-.522 1.21-1.68.69-2.581l-3.01-5.213c.262-.252.52-.51.77-.77l5.215 3.01a1.896 1.896 0 002.58-.692l3.464-6a1.893 1.893 0 00-.69-2.582l-5.192-2.997c.1-.346.194-.701.282-1.066h6c1.042 0 1.89-.848 1.89-1.89v-6.93a1.895 1.895 0 00-1.892-1.89zm.63 8.819c0 .347-.283.63-.63.63h-7.01l-.106.496c-.148.678-.32 1.328-.511 1.934l-.154.483 6.064 3.5c.301.175.405.56.232.861l-3.465 6.002a.634.634 0 01-.861.233l-6.086-3.515-.341.374a21.59 21.59 0 01-1.407 1.407l-.374.341 3.513 6.085c.173.3.07.688-.23.863l-6.001 3.465a.636.636 0 01-.862-.232l-3.5-6.065-.482.155c-.606.191-1.257.364-1.935.51l-.496.107v7.01a.63.63 0 01-.63.63h-6.928a.63.63 0 01-.63-.63v-7.01l-.497-.106c-.678-.148-1.33-.32-1.934-.511l-.483-.155-3.5 6.065a.634.634 0 01-.86.232l-6.001-3.465a.63.63 0 01-.23-.862l3.513-6.086-.375-.342c-.483-.44-.957-.913-1.408-1.406l-.341-.374-6.085 3.513a.63.63 0 01-.86-.23L4.38 42.37a.631.631 0 01.23-.861l6.065-3.5-.154-.482a20.954 20.954 0 01-.511-1.936l-.108-.495h-7.01a.63.63 0 01-.63-.63v-6.928a.63.63 0 01.63-.63h7.01l.107-.495c.152-.7.32-1.334.512-1.936l.154-.482-6.063-3.5a.631.631 0 01-.232-.86l3.464-6.002a.63.63 0 01.861-.23l6.085 3.513.34-.374c.446-.489.92-.963 1.409-1.409l.374-.34L13.4 8.708a.632.632 0 01.23-.862l6.001-3.465a.63.63 0 01.86.23l3.5 6.066.484-.155a20.91 20.91 0 011.934-.511l.495-.108v-7.01a.63.63 0 01.63-.63h6.929a.63.63 0 01.63.63v7.01l.495.108c.7.152 1.333.32 1.935.511l.482.155 3.5-6.064a.63.63 0 01.86-.232l6.001 3.464c.301.174.405.56.233.861l-3.514 6.085.374.341c.493.45.967.924 1.407 1.409l.341.373 6.086-3.513a.632.632 0 01.861.23l3.464 6.002c.174.3.07.688-.23.863l-6.065 3.5.154.482c.192.606.365 1.257.511 1.935l.107.496h7.01a.63.63 0 01.63.63v6.925h.002z"/></mask><path d="M59.108 25.645H53.11a24.4 24.4 0 00-.282-1.067l5.191-2.996a1.894 1.894 0 00.691-2.583l-3.465-6a1.895 1.895 0 00-2.581-.692l-5.213 3.01c-.25-.26-.508-.52-.77-.77l3.01-5.214c.52-.9.21-2.059-.692-2.58l-6-3.466a1.891 1.891 0 00-2.581.692L37.42 9.171a23.73 23.73 0 00-1.066-.281v-6c0-1.042-.848-1.89-1.89-1.89h-6.929c-1.042 0-1.89.848-1.89 1.89v6c-.37.088-.724.181-1.066.28l-2.997-5.19a1.892 1.892 0 00-2.58-.693l-6.003 3.465a1.893 1.893 0 00-.69 2.581l3.009 5.213c-.262.25-.52.509-.77.771l-5.214-3.01a1.894 1.894 0 00-2.582.691L3.287 19c-.52.903-.21 2.06.692 2.583l5.192 2.996c-.099.344-.193.697-.281 1.067h-6c-1.042 0-1.89.848-1.89 1.89v6.929c0 1.042.848 1.89 1.89 1.89h6c.088.37.18.723.28 1.066l-5.19 2.997a1.891 1.891 0 00-.692 2.581l3.465 6.003c.52.9 1.677 1.21 2.581.69l5.213-3.01c.252.264.51.521.772.77l-3.01 5.213c-.52.901-.21 2.06.691 2.581l6.002 3.467a1.893 1.893 0 002.582-.693l2.996-5.191c.345.1.701.194 1.066.282v6c0 1.042.848 1.89 1.89 1.89h6.929c1.042 0 1.89-.848 1.89-1.89v-6a23.88 23.88 0 001.066-.282l2.997 5.191a1.89 1.89 0 002.58.691l6.003-3.465c.9-.522 1.21-1.68.69-2.581l-3.01-5.213c.262-.252.52-.51.77-.77l5.215 3.01a1.896 1.896 0 002.58-.692l3.464-6a1.893 1.893 0 00-.69-2.582l-5.192-2.997c.1-.346.194-.701.282-1.066h6c1.042 0 1.89-.848 1.89-1.89v-6.93a1.895 1.895 0 00-1.892-1.89zm.63 8.819c0 .347-.283.63-.63.63h-7.01l-.106.496c-.148.678-.32 1.328-.511 1.934l-.154.483 6.064 3.5c.301.175.405.56.232.861l-3.465 6.002a.634.634 0 01-.861.233l-6.086-3.515-.341.374a21.59 21.59 0 01-1.407 1.407l-.374.341 3.513 6.085c.173.3.07.688-.23.863l-6.001 3.465a.636.636 0 01-.862-.232l-3.5-6.065-.482.155c-.606.191-1.257.364-1.935.51l-.496.107v7.01a.63.63 0 01-.63.63h-6.928a.63.63 0 01-.63-.63v-7.01l-.497-.106c-.678-.148-1.33-.32-1.934-.511l-.483-.155-3.5 6.065a.634.634 0 01-.86.232l-6.001-3.465a.63.63 0 01-.23-.862l3.513-6.086-.375-.342c-.483-.44-.957-.913-1.408-1.406l-.341-.374-6.085 3.513a.63.63 0 01-.86-.23L4.38 42.37a.631.631 0 01.23-.861l6.065-3.5-.154-.482a20.954 20.954 0 01-.511-1.936l-.108-.495h-7.01a.63.63 0 01-.63-.63v-6.928a.63.63 0 01.63-.63h7.01l.107-.495c.152-.7.32-1.334.512-1.936l.154-.482-6.063-3.5a.631.631 0 01-.232-.86l3.464-6.002a.63.63 0 01.861-.23l6.085 3.513.34-.374c.446-.489.92-.963 1.409-1.409l.374-.34L13.4 8.708a.632.632 0 01.23-.862l6.001-3.465a.63.63 0 01.86.23l3.5 6.066.484-.155a20.91 20.91 0 011.934-.511l.495-.108v-7.01a.63.63 0 01.63-.63h6.929a.63.63 0 01.63.63v7.01l.495.108c.7.152 1.333.32 1.935.511l.482.155 3.5-6.064a.63.63 0 01.86-.232l6.001 3.464c.301.174.405.56.233.861l-3.514 6.085.374.341c.493.45.967.924 1.407 1.409l.341.373 6.086-3.513a.632.632 0 01.861.23l3.464 6.002c.174.3.07.688-.23.863l-6.065 3.5.154.482c.192.606.365 1.257.511 1.935l.107.496h7.01a.63.63 0 01.63.63v6.925h.002z" fill="#fff"/><path d="M59.108 25.645H53.11a24.4 24.4 0 00-.282-1.067l5.191-2.996a1.894 1.894 0 00.691-2.583l-3.465-6a1.895 1.895 0 00-2.581-.692l-5.213 3.01c-.25-.26-.508-.52-.77-.77l3.01-5.214c.52-.9.21-2.059-.692-2.58l-6-3.466a1.891 1.891 0 00-2.581.692L37.42 9.171a23.73 23.73 0 00-1.066-.281v-6c0-1.042-.848-1.89-1.89-1.89h-6.929c-1.042 0-1.89.848-1.89 1.89v6c-.37.088-.724.181-1.066.28l-2.997-5.19a1.892 1.892 0 00-2.58-.693l-6.003 3.465a1.893 1.893 0 00-.69 2.581l3.009 5.213c-.262.25-.52.509-.77.771l-5.214-3.01a1.894 1.894 0 00-2.582.691L3.287 19c-.52.903-.21 2.06.692 2.583l5.192 2.996c-.099.344-.193.697-.281 1.067h-6c-1.042 0-1.89.848-1.89 1.89v6.929c0 1.042.848 1.89 1.89 1.89h6c.088.37.18.723.28 1.066l-5.19 2.997a1.891 1.891 0 00-.692 2.581l3.465 6.003c.52.9 1.677 1.21 2.581.69l5.213-3.01c.252.264.51.521.772.77l-3.01 5.213c-.52.901-.21 2.06.691 2.581l6.002 3.467a1.893 1.893 0 002.582-.693l2.996-5.191c.345.1.701.194 1.066.282v6c0 1.042.848 1.89 1.89 1.89h6.929c1.042 0 1.89-.848 1.89-1.89v-6a23.88 23.88 0 001.066-.282l2.997 5.191a1.89 1.89 0 002.58.691l6.003-3.465c.9-.522 1.21-1.68.69-2.581l-3.01-5.213c.262-.252.52-.51.77-.77l5.215 3.01a1.896 1.896 0 002.58-.692l3.464-6a1.893 1.893 0 00-.69-2.582l-5.192-2.997c.1-.346.194-.701.282-1.066h6c1.042 0 1.89-.848 1.89-1.89v-6.93a1.895 1.895 0 00-1.892-1.89zm.63 8.819c0 .347-.283.63-.63.63h-7.01l-.106.496c-.148.678-.32 1.328-.511 1.934l-.154.483 6.064 3.5c.301.175.405.56.232.861l-3.465 6.002a.634.634 0 01-.861.233l-6.086-3.515-.341.374a21.59 21.59 0 01-1.407 1.407l-.374.341 3.513 6.085c.173.3.07.688-.23.863l-6.001 3.465a.636.636 0 01-.862-.232l-3.5-6.065-.482.155c-.606.191-1.257.364-1.935.51l-.496.107v7.01a.63.63 0 01-.63.63h-6.928a.63.63 0 01-.63-.63v-7.01l-.497-.106c-.678-.148-1.33-.32-1.934-.511l-.483-.155-3.5 6.065a.634.634 0 01-.86.232l-6.001-3.465a.63.63 0 01-.23-.862l3.513-6.086-.375-.342c-.483-.44-.957-.913-1.408-1.406l-.341-.374-6.085 3.513a.63.63 0 01-.86-.23L4.38 42.37a.631.631 0 01.23-.861l6.065-3.5-.154-.482a20.954 20.954 0 01-.511-1.936l-.108-.495h-7.01a.63.63 0 01-.63-.63v-6.928a.63.63 0 01.63-.63h7.01l.107-.495c.152-.7.32-1.334.512-1.936l.154-.482-6.063-3.5a.631.631 0 01-.232-.86l3.464-6.002a.63.63 0 01.861-.23l6.085 3.513.34-.374c.446-.489.92-.963 1.409-1.409l.374-.34L13.4 8.708a.632.632 0 01.23-.862l6.001-3.465a.63.63 0 01.86.23l3.5 6.066.484-.155a20.91 20.91 0 011.934-.511l.495-.108v-7.01a.63.63 0 01.63-.63h6.929a.63.63 0 01.63.63v7.01l.495.108c.7.152 1.333.32 1.935.511l.482.155 3.5-6.064a.63.63 0 01.86-.232l6.001 3.464c.301.174.405.56.233.861l-3.514 6.085.374.341c.493.45.967.924 1.407 1.409l.341.373 6.086-3.513a.632.632 0 01.861.23l3.464 6.002c.174.3.07.688-.23.863l-6.065 3.5.154.482c.192.606.365 1.257.511 1.935l.107.496h7.01a.63.63 0 01.63.63v6.925h.002z" stroke="#fff" mask="url(#a)"/><path d="M31 15.473c-8.56 0-15.525 6.965-15.525 15.526 0 8.56 6.964 15.525 15.525 15.525 8.56 0 15.524-6.965 15.524-15.525S39.56 15.473 31 15.473zm0 29.292c-7.591 0-13.766-6.175-13.766-13.766s6.175-13.766 13.765-13.766c7.591 0 13.766 6.175 13.766 13.766 0 7.59-6.175 13.766-13.765 13.766z" fill="#fff" stroke="#fff" stroke-width=".5"/></svg>